<svg width="24px" height="24px" viewBox="0 0 0.96 0.96" fill="none" xmlns="http://www.w3.org/2000/svg"><path d="M0.56 0.479A0.08 0.08 0 0 0 0.48 0.401a0.079 0.079 0 0 0 -0.08 0.078c0 0.043 0.036 0.078 0.08 0.078A0.08 0.08 0 0 0 0.56 0.479" fill="#53C1DE"/><path fill-rule="evenodd" clip-rule="evenodd" d="M0.741 0.335C0.758 0.268 0.779 0.143 0.704 0.101S0.532 0.14 0.481 0.188C0.43 0.14 0.329 0.06 0.254 0.102S0.203 0.266 0.22 0.333C0.15 0.352 0.03 0.394 0.03 0.479c0 0.084 0.119 0.13 0.189 0.149 -0.017 0.068 -0.039 0.188 0.035 0.229 0.076 0.042 0.176 -0.036 0.227 -0.085 0.052 0.049 0.149 0.127 0.223 0.085 0.075 -0.042 0.055 -0.164 0.038 -0.232 0.068 -0.019 0.187 -0.063 0.187 -0.146 0 -0.084 -0.12 -0.125 -0.189 -0.145M0.732 0.589A0.75 0.75 0 0 0 0.686 0.479 0.75 0.75 0 0 0 0.73 0.37c0.05 0.014 0.161 0.046 0.161 0.109 0 0.063 -0.106 0.095 -0.159 0.111M0.684 0.825C0.628 0.856 0.545 0.782 0.507 0.746A0.75 0.75 0 0 0 0.583 0.652Q0.649 0.646 0.705 0.634c0.012 0.048 0.036 0.159 -0.02 0.191m-0.412 -0.001C0.217 0.793 0.243 0.685 0.256 0.636q0.055 0.012 0.121 0.017 0.038 0.051 0.077 0.092c-0.032 0.031 -0.125 0.11 -0.181 0.079M0.068 0.479c0 -0.063 0.109 -0.095 0.161 -0.109A0.75 0.75 0 0 0 0.273 0.48a0.75 0.75 0 0 0 -0.044 0.112C0.18 0.578 0.068 0.542 0.068 0.479M0.273 0.135c0.056 -0.032 0.143 0.045 0.18 0.08a0.75 0.75 0 0 0 -0.076 0.092 0.75 0.75 0 0 0 -0.12 0.018C0.242 0.271 0.217 0.167 0.273 0.135m0.338 0.212Q0.655 0.352 0.693 0.361a0.75 0.75 0 0 1 -0.028 0.075A1.5 1.5 0 0 0 0.611 0.347M0.48 0.241Q0.507 0.27 0.533 0.304a1.5 1.5 0 0 0 -0.106 0A0.75 0.75 0 0 1 0.48 0.241m-0.184 0.195A0.75 0.75 0 0 1 0.267 0.361 0.75 0.75 0 0 1 0.349 0.347a0.75 0.75 0 0 0 -0.053 0.089m0.054 0.178A0.75 0.75 0 0 1 0.266 0.602Q0.279 0.564 0.295 0.524a0.75 0.75 0 0 0 0.054 0.09M0.482 0.72A0.75 0.75 0 0 1 0.427 0.657q0.053 0.002 0.107 0a0.75 0.75 0 0 1 -0.053 0.063M0.666 0.523a0.75 0.75 0 0 1 0.03 0.076 0.75 0.75 0 0 1 -0.084 0.013Q0.641 0.569 0.666 0.522M0.563 0.617a1.5 1.5 0 0 1 -0.164 0 1.05 1.05 0 0 1 -0.083 -0.138A1.05 1.05 0 0 1 0.398 0.341a1.5 1.5 0 0 1 0.164 0 1.5 1.5 0 0 1 0.083 0.137 1.5 1.5 0 0 1 -0.082 0.138M0.685 0.134c0.056 0.032 0.032 0.143 0.019 0.191a0.75 0.75 0 0 0 -0.12 -0.019A0.75 0.75 0 0 0 0.508 0.214C0.545 0.179 0.63 0.103 0.685 0.134" fill="#53C1DE"/></svg>