<svg width="32px" height="32px" viewBox="0 0 1.28 1.28" fill="none" xmlns="http://www.w3.org/2000/svg"><path d="M0.747 0.639c0 -0.057 -0.048 -0.104 -0.107 -0.104 -0.059 0 -0.107 0.046 -0.107 0.104 0 0.057 0.048 0.104 0.107 0.104 0.059 0 0.107 -0.047 0.107 -0.104" fill="#53C1DE"/><path fill-rule="evenodd" clip-rule="evenodd" d="M0.988 0.446c0.023 -0.089 0.051 -0.255 -0.049 -0.311 -0.1 -0.056 -0.23 0.051 -0.298 0.115 -0.068 -0.064 -0.202 -0.17 -0.302 -0.114 -0.1 0.056 -0.069 0.219 -0.046 0.308 -0.093 0.026 -0.253 0.081 -0.253 0.194 0 0.112 0.159 0.173 0.252 0.198 -0.023 0.09 -0.052 0.25 0.047 0.306 0.101 0.056 0.234 -0.048 0.303 -0.113 0.069 0.065 0.198 0.169 0.297 0.113 0.1 -0.056 0.074 -0.219 0.051 -0.31 0.09 -0.026 0.249 -0.084 0.249 -0.195 0 -0.112 -0.16 -0.167 -0.252 -0.193m-0.011 0.341a1.16 1.16 0 0 0 -0.061 -0.147 1.16 1.16 0 0 0 0.058 -0.145c0.067 0.019 0.214 0.062 0.214 0.145 0 0.084 -0.141 0.127 -0.212 0.148m-0.063 0.314c-0.074 0.042 -0.185 -0.058 -0.236 -0.106a1.16 1.16 0 0 0 0.101 -0.124c0.058 -0.005 0.113 -0.013 0.163 -0.024 0.016 0.064 0.048 0.212 -0.027 0.254m-0.549 -0.001c-0.075 -0.042 -0.04 -0.185 -0.023 -0.251 0.049 0.011 0.104 0.018 0.162 0.023 0.033 0.045 0.068 0.087 0.103 0.123 -0.043 0.041 -0.167 0.147 -0.241 0.105M0.091 0.639c0 -0.084 0.146 -0.127 0.215 -0.146a1.16 1.16 0 0 0 0.058 0.147 1.2 1.2 0 0 0 -0.059 0.149c-0.065 -0.018 -0.214 -0.066 -0.214 -0.15M0.364 0.18c0.075 -0.042 0.191 0.06 0.24 0.106a1.2 1.2 0 0 0 -0.102 0.123c-0.056 0.005 -0.11 0.013 -0.16 0.024 -0.019 -0.072 -0.053 -0.211 0.022 -0.253m0.451 0.283c0.038 0.005 0.075 0.011 0.109 0.019 -0.01 0.032 -0.023 0.066 -0.038 0.1a1.64 1.64 0 0 0 -0.071 -0.119m-0.175 -0.141c0.024 0.025 0.047 0.053 0.071 0.083a1.56 1.56 0 0 0 -0.142 0 1.12 1.12 0 0 1 0.071 -0.083m-0.246 0.26a1.08 1.08 0 0 1 -0.038 -0.101 1.2 1.2 0 0 1 0.109 -0.018 1.44 1.44 0 0 0 -0.071 0.119m0.072 0.237a1.12 1.12 0 0 1 -0.111 -0.017c0.011 -0.033 0.024 -0.068 0.039 -0.103a1.44 1.44 0 0 0 0.072 0.12m0.176 0.141a1.12 1.12 0 0 1 -0.072 -0.084q0.071 0.003 0.143 0a1.08 1.08 0 0 1 -0.07 0.084m0.245 -0.263c0.016 0.035 0.03 0.07 0.04 0.102a1.12 1.12 0 0 1 -0.112 0.018c0.026 -0.039 0.05 -0.08 0.072 -0.121m-0.137 0.127a1.66 1.66 0 0 1 -0.219 0 1.4 1.4 0 0 1 -0.11 -0.184 1.4 1.4 0 0 1 0.109 -0.184c0.073 -0.005 0.146 -0.005 0.219 0a1.56 1.56 0 0 1 0.11 0.183 1.56 1.56 0 0 1 -0.109 0.184M0.913 0.179c0.075 0.042 0.042 0.19 0.025 0.255a1.28 1.28 0 0 0 -0.16 -0.025 1.16 1.16 0 0 0 -0.101 -0.123c0.05 -0.047 0.163 -0.149 0.237 -0.108" fill="#53C1DE"/></svg>